<?xml version="1.0" encoding="UTF-8" standalone="no"?>
<!-- Created with Inkscape (http://www.inkscape.org/) -->

<svg
   xmlns:dc="http://purl.org/dc/elements/1.1/"
   xmlns:cc="http://creativecommons.org/ns#"
   xmlns:rdf="http://www.w3.org/1999/02/22-rdf-syntax-ns#"
   xmlns:svg="http://www.w3.org/2000/svg"
   xmlns="http://www.w3.org/2000/svg"
   xmlns:sodipodi="http://sodipodi.sourceforge.net/DTD/sodipodi-0.dtd"
   xmlns:inkscape="http://www.inkscape.org/namespaces/inkscape"
   width="744.09448819"
   height="1052.3622047"
   id="svg3500"
   version="1.1"
   inkscape:version="0.48.4 r9939"
   sodipodi:docname="New document 2">
  <defs
     id="defs3502" />
  <sodipodi:namedview
     id="base"
     pagecolor="#ffffff"
     bordercolor="#666666"
     borderopacity="1.0"
     inkscape:pageopacity="0.0"
     inkscape:pageshadow="2"
     inkscape:zoom="0.35"
     inkscape:cx="375"
     inkscape:cy="520"
     inkscape:document-units="px"
     inkscape:current-layer="layer1"
     showgrid="false"
     inkscape:window-width="507"
     inkscape:window-height="439"
     inkscape:window-x="3000"
     inkscape:window-y="181"
     inkscape:window-maximized="0" />
  <metadata
     id="metadata3505">
    <rdf:RDF>
      <cc:Work
         rdf:about="">
        <dc:format>image/svg+xml</dc:format>
        <dc:type
           rdf:resource="http://purl.org/dc/dcmitype/StillImage" />
        <dc:title></dc:title>
      </cc:Work>
    </rdf:RDF>
  </metadata>
  <g
     inkscape:label="Layer 1"
     inkscape:groupmode="layer"
     id="layer1">
    <g
       id="g5958"
       transform="matrix(1.3680102,0,0,1.3680102,243.966,-32.076417)">
      <path
         id="rect6076-1"
         d="m 171.4028,378.48152 36.40748,0 c 10.08487,0 18.20373,8.11886 18.20373,18.20373 l 0,36.40748 c 0,10.08487 -8.11886,18.20374 -18.20373,18.20374 l -36.40748,0 c -10.08487,0 -18.20373,-8.11887 -18.20373,-18.20374 l 0,-36.40748 c 0,-10.08487 8.11886,-18.20373 18.20373,-18.20373 z"
         style="fill:#000000"
         inkscape:connector-curvature="0" />
      <path
         id="rect4197-98"
         d="m 186.66171,450.94163 6.06791,0 0,12.13583 -6.06791,0 z"
         style="fill:#000000;fill-opacity:1"
         inkscape:connector-curvature="0" />
      <path
         id="path6078-5"
         d="m 189.60654,399.98166 -5.25497,-11.918 -12.94877,1.40807 7.69381,-10.50993 -7.69381,-10.50994 12.94877,1.40807 5.25497,-11.918 5.25497,11.918 12.94877,-1.40807 -7.69381,10.50994 7.69381,10.50993 -12.94877,-1.40807 z"
         style="fill:#000000;fill-opacity:1"
         inkscape:connector-curvature="0" />
      <path
         id="path4416-04"
         d="m 189.60654,397.56662 -4.65121,-10.5487 -11.46104,1.24629 6.80984,-9.30241 -6.80984,-9.30242 11.46104,1.24629 4.65121,-10.5487 4.65121,10.5487 11.46104,-1.24629 -6.80984,9.30242 6.80984,9.30241 -11.46104,-1.24629 z"
         style="fill:#ffffff;fill-opacity:1"
         inkscape:connector-curvature="0" />
      <path
         id="rect4197-3-79"
         d="m 187.87529,446.12915 3.64075,0 0,15.73473 -3.64075,0 z"
         style="fill:#ffffff;fill-opacity:1"
         inkscape:connector-curvature="0" />
      <path
         id="rect3336-02"
         d="m 172.0096,379.6951 35.19389,0 c 9.7487,0 17.59694,7.84824 17.59694,17.59695 l 0,35.19389 c 0,9.7487 -7.84824,17.59694 -17.59694,17.59694 l -35.19389,0 c -9.74871,0 -17.59695,-7.84824 -17.59695,-17.59694 l 0,-35.19389 c 0,-9.74871 7.84824,-17.59695 17.59695,-17.59695 z"
         style="fill:#ffffff"
         inkscape:connector-curvature="0" />
      <path
         id="rect4138-75"
         d="m 171.15669,408.45299 4.29066,4.29066 c 1.18852,1.18851 1.18853,3.10215 1e-5,4.29067 l -4.29066,4.29066 c -1.18851,1.18851 -3.10216,1.18851 -4.29067,-10e-6 l -4.29066,-4.29066 c -1.18851,-1.18851 -1.18851,-3.10215 0,-4.29066 l 4.29066,-4.29066 c 1.18851,-1.18852 3.10215,-1.18852 4.29066,0 z"
         style="fill:#000000"
         inkscape:connector-curvature="0" />
      <path
         id="rect4140-26"
         d="m 170.72763,409.74018 3.43253,3.43253 c 0.95081,0.95081 0.95081,2.48172 0,3.43253 l -3.43253,3.43253 c -0.95081,0.95081 -2.48172,0.95081 -3.43253,0 l -3.43253,-3.43253 c -0.95081,-0.95081 -0.95081,-2.48172 0,-3.43253 l 3.43253,-3.43253 c 0.95081,-0.95081 2.48172,-0.95081 3.43253,0 z"
         style="fill:#000000;fill-opacity:1"
         inkscape:connector-curvature="0" />
      <path
         id="rect4138-8-1"
         d="m 181.45429,418.75058 4.29066,4.29066 c 1.18851,1.18852 1.18851,3.10215 0,4.29067 l -4.29066,4.29066 c -1.18851,1.18851 -3.10215,1.18851 -4.29066,0 l -4.29067,-4.29066 c -1.18851,-1.18852 -1.18851,-3.10215 0,-4.29067 l 4.29067,-4.29066 c 1.18851,-1.18851 3.10215,-1.18851 4.29066,0 z"
         style="fill:#000000"
         inkscape:connector-curvature="0" />
      <path
         id="rect4140-3-53"
         d="m 181.02522,420.03778 3.43253,3.43253 c 0.95081,0.95081 0.95081,2.48172 0,3.43253 l -3.43253,3.43253 c -0.95081,0.95081 -2.48172,0.95081 -3.43253,0 l -3.43253,-3.43253 c -0.95081,-0.95081 -0.95081,-2.48172 0,-3.43253 l 3.43253,-3.43253 c 0.95081,-0.95081 2.48172,-0.95081 3.43253,0 z"
         style="fill:#000000;fill-opacity:1"
         inkscape:connector-curvature="0" />
      <path
         id="rect4138-8-4-23"
         d="m 191.75188,429.04817 4.29066,4.29066 c 1.18851,1.18852 1.18851,3.10215 0,4.29067 l -4.29066,4.29065 c -1.18852,1.18852 -3.10215,1.18852 -4.29066,0 l -4.29067,-4.29065 c -1.18851,-1.18852 -1.18851,-3.10215 0,-4.29067 l 4.29067,-4.29066 c 1.18851,-1.18851 3.10214,-1.18851 4.29066,0 z"
         style="fill:#000000"
         inkscape:connector-curvature="0" />
      <path
         id="rect4140-3-4-5"
         d="m 191.32281,430.33537 3.43253,3.43253 c 0.95081,0.95081 0.95081,2.48172 0,3.43253 l -3.43253,3.43253 c -0.95081,0.95081 -2.48172,0.95081 -3.43253,0 l -3.43253,-3.43253 c -0.95081,-0.95081 -0.95081,-2.48172 0,-3.43253 l 3.43253,-3.43253 c 0.95081,-0.95081 2.48172,-0.95081 3.43253,0 z"
         style="fill:#000000;fill-opacity:1"
         inkscape:connector-curvature="0" />
      <path
         id="rect4138-0-2"
         d="m 181.45428,398.1554 4.29067,4.29066 c 1.18851,1.18851 1.18852,3.10215 0,4.29067 l -4.29066,4.29066 c -1.18851,1.18851 -3.10216,1.1885 -4.29067,-1e-5 l -4.29066,-4.29066 c -1.18851,-1.18851 -1.18851,-3.10215 0,-4.29066 l 4.29066,-4.29066 c 1.18851,-1.18852 3.10215,-1.18852 4.29066,0 z"
         style="fill:#000000"
         inkscape:connector-curvature="0" />
      <path
         id="rect4140-7-2"
         d="m 181.02522,399.44259 3.43253,3.43253 c 0.95081,0.95082 0.95081,2.48172 0,3.43253 l -3.43253,3.43253 c -0.95081,0.95081 -2.48172,0.95081 -3.43253,0 l -3.43253,-3.43253 c -0.95081,-0.95081 -0.95081,-2.48171 0,-3.43253 l 3.43253,-3.43253 c 0.95081,-0.95081 2.48172,-0.95081 3.43253,0 z"
         style="fill:#ffffff"
         inkscape:connector-curvature="0" />
      <path
         id="rect4138-8-9-36"
         d="m 191.75188,408.45299 4.29066,4.29066 c 1.18851,1.18852 1.18851,3.10215 0,4.29066 l -4.29066,4.29067 c -1.18851,1.18851 -3.10215,1.18851 -4.29066,0 l -4.29067,-4.29067 c -1.18851,-1.18851 -1.18851,-3.10214 0,-4.29066 l 4.29067,-4.29066 c 1.18851,-1.18851 3.10215,-1.18851 4.29066,0 z"
         style="fill:#000000"
         inkscape:connector-curvature="0" />
      <path
         id="rect4140-3-3-8"
         d="m 191.32281,409.74019 3.43253,3.43253 c 0.95081,0.95081 0.95081,2.48172 0,3.43253 l -3.43253,3.43253 c -0.95081,0.95081 -2.48172,0.95081 -3.43253,0 l -3.43253,-3.43253 c -0.95081,-0.95081 -0.95081,-2.48172 0,-3.43253 l 3.43253,-3.43253 c 0.95081,-0.95081 2.48172,-0.95081 3.43253,0 z"
         style="fill:#ffffff"
         inkscape:connector-curvature="0" />
      <path
         id="rect4138-8-4-6-3"
         d="m 202.04947,418.75058 4.29066,4.29066 c 1.18851,1.18852 1.18851,3.10215 0,4.29066 l -4.29066,4.29067 c -1.18852,1.18851 -3.10215,1.18851 -4.29066,0 l -4.29067,-4.29067 c -1.18851,-1.18851 -1.18851,-3.10214 0,-4.29066 l 4.29067,-4.29066 c 1.18851,-1.18851 3.10214,-1.18851 4.29066,0 z"
         style="fill:#000000"
         inkscape:connector-curvature="0" />
      <path
         id="rect4140-3-4-9-8"
         d="m 201.6204,420.03778 3.43253,3.43253 c 0.95081,0.95081 0.95081,2.48172 0,3.43253 l -3.43253,3.43253 c -0.95081,0.95081 -2.48172,0.95081 -3.43253,0 l -3.43253,-3.43253 c -0.95081,-0.95081 -0.95081,-2.48172 0,-3.43253 l 3.43253,-3.43253 c 0.95081,-0.95081 2.48172,-0.95081 3.43253,0 z"
         style="fill:#000000;fill-opacity:1"
         inkscape:connector-curvature="0" />
      <path
         id="rect4138-7-6"
         d="m 191.75187,387.85781 4.29066,4.29067 c 1.18851,1.18851 1.18852,3.10215 1e-5,4.29066 l -4.29067,4.29067 c -1.18851,1.18851 -3.10215,1.1885 -4.29067,-10e-6 l -4.29066,-4.29066 c -1.18851,-1.18851 -1.18851,-3.10215 0,-4.29066 l 4.29066,-4.29067 c 1.18852,-1.18851 3.10215,-1.18851 4.29067,0 z"
         style="fill:#000000"
         inkscape:connector-curvature="0" />
      <path
         id="rect4140-8-1"
         d="m 191.3228,389.14501 3.43253,3.43253 c 0.95081,0.95081 0.95081,2.48172 0,3.43253 l -3.43253,3.43253 c -0.95081,0.95081 -2.48172,0.95081 -3.43253,0 l -3.43253,-3.43253 c -0.95081,-0.95081 -0.95081,-2.48172 0,-3.43253 l 3.43253,-3.43253 c 0.95081,-0.95081 2.48172,-0.95081 3.43253,0 z"
         style="fill:#ffffff"
         inkscape:connector-curvature="0" />
      <path
         id="rect4138-8-8-8"
         d="m 202.04946,398.15541 4.29066,4.29066 c 1.18852,1.18851 1.18852,3.10215 0,4.29066 l -4.29066,4.29066 c -1.18851,1.18852 -3.10215,1.18852 -4.29066,0 l -4.29066,-4.29066 c -1.18852,-1.18851 -1.18852,-3.10215 0,-4.29066 l 4.29066,-4.29066 c 1.18851,-1.18851 3.10215,-1.18851 4.29066,0 z"
         style="fill:#000000"
         inkscape:connector-curvature="0" />
      <path
         id="rect4140-3-2-44"
         d="m 201.6204,399.44261 3.43253,3.43253 c 0.95081,0.95081 0.95081,2.48171 0,3.43253 l -3.43253,3.43253 c -0.95081,0.95081 -2.48172,0.95081 -3.43254,0 l -3.43252,-3.43253 c -0.95082,-0.95081 -0.95082,-2.48172 0,-3.43253 l 3.43252,-3.43253 c 0.95082,-0.95081 2.48173,-0.95081 3.43254,0 z"
         style="fill:#000000;fill-opacity:1"
         inkscape:connector-curvature="0" />
      <path
         id="rect4138-8-4-2-0"
         d="m 212.34705,408.453 4.29066,4.29066 c 1.18852,1.18851 1.18852,3.10215 0,4.29066 l -4.29066,4.29066 c -1.18851,1.18852 -3.10215,1.18852 -4.29066,0 l -4.29066,-4.29066 c -1.18852,-1.18851 -1.18852,-3.10215 0,-4.29066 l 4.29066,-4.29066 c 1.18851,-1.18852 3.10215,-1.18852 4.29066,0 z"
         style="fill:#000000"
         inkscape:connector-curvature="0" />
      <path
         id="rect4140-3-4-1-29"
         d="m 211.91798,409.7402 3.43253,3.43253 c 0.95081,0.95081 0.95081,2.48171 0,3.43252 l -3.43253,3.43253 c -0.95081,0.95082 -2.48172,0.95082 -3.43253,0 l -3.43253,-3.43253 c -0.95081,-0.95081 -0.95081,-2.48171 0,-3.43252 l 3.43253,-3.43253 c 0.95081,-0.95081 2.48172,-0.95081 3.43253,0 z"
         style="fill:#ffffff"
         inkscape:connector-curvature="0" />
      <path
         inkscape:connector-curvature="0"
         d="m 47.496332,372.11948 0,-4.34981 -3.579641,0 0,-1.80067 5.749119,0 0,6.95318 q -1.269145,0.90034 -2.798628,1.36677 -1.529483,0.4556 -3.265066,0.4556 -3.796589,0 -5.944372,-2.21287 -2.136937,-2.22372 -2.136937,-6.18302 0,-3.97014 2.136937,-6.18301 2.147783,-2.22372 5.944372,-2.22372 1.58372,0 3.004728,0.39051 1.431857,0.3905 2.635918,1.14982 l 0,2.33219 q -1.214908,-1.0305 -2.581681,-1.55118 -1.36677,-0.52067 -2.874559,-0.52067 -2.972185,0 -4.469127,1.65965 -1.486092,1.65965 -1.486092,4.94641 0,3.27591 1.486092,4.93557 1.496942,1.65965 4.469127,1.65965 1.16067,0 2.071852,-0.19526 0.911182,-0.2061 1.637958,-0.62914 z"
         style="font-size:91.52845001px;font-style:normal;font-variant:normal;font-weight:normal;font-stretch:normal;text-align:end;line-height:125%;letter-spacing:0px;word-spacing:0px;writing-mode:lr-tb;text-anchor:end;fill:#000000;fill-opacity:1;stroke:none;font-family:Standard Symbols L;-inkscape-font-specification:Standard Symbols L"
         id="path3575-0" />
      <path
         inkscape:connector-curvature="0"
         d="m 61.3593,366.8368 q 0.705082,0.23864 1.366773,1.01965 0.672539,0.78101 1.345077,2.14778 l 2.223715,4.42574 -2.353884,0 -2.071852,-4.15455 q -0.802707,-1.62711 -1.562026,-2.15863 -0.74847,-0.53152 -2.050156,-0.53152 l -2.386428,0 0,6.8447 -2.191174,0 0,-16.19516 4.946412,0 q 2.776934,0 4.143704,1.16067 1.366773,1.16067 1.366773,3.50371 0,1.52948 -0.715928,2.53829 -0.705082,1.00881 -2.061006,1.39932 z m -5.488781,-6.80132 0,5.74912 2.755238,0 q 1.58372,0 2.386427,-0.72678 0.813554,-0.73762 0.813554,-2.15863 0,-1.42101 -0.813554,-2.13694 -0.802707,-0.72677 -2.386427,-0.72677 l -2.755238,0 z"
         style="font-size:91.52845001px;font-style:normal;font-variant:normal;font-weight:normal;font-stretch:normal;text-align:end;line-height:125%;letter-spacing:0px;word-spacing:0px;writing-mode:lr-tb;text-anchor:end;fill:#000000;fill-opacity:1;stroke:none;font-family:Standard Symbols L;-inkscape-font-specification:Standard Symbols L"
         id="path3577-67" />
      <path
         inkscape:connector-curvature="0"
         d="m 73.627706,360.39344 -2.972187,8.05962 5.955221,0 -2.983034,-8.05962 z m -1.236604,-2.15863 2.484055,0 6.172167,16.19516 -2.277953,0 -1.475245,-4.15455 -7.300298,0 -1.475246,4.15455 -2.310493,0 6.183013,-16.19516 z"
         style="font-size:91.52845001px;font-style:normal;font-variant:normal;font-weight:normal;font-stretch:normal;text-align:end;line-height:125%;letter-spacing:0px;word-spacing:0px;writing-mode:lr-tb;text-anchor:end;fill:#000000;fill-opacity:1;stroke:none;font-family:Standard Symbols L;-inkscape-font-specification:Standard Symbols L"
         id="path3579-1" />
      <path
         inkscape:connector-curvature="0"
         d="m 83.401208,358.23481 2.95049,0 7.180974,13.5484 0,-13.5484 2.12609,0 0,16.19516 -2.950491,0 -7.180976,-13.5484 0,13.5484 -2.126087,0 0,-16.19516 z"
         style="font-size:91.52845001px;font-style:normal;font-variant:normal;font-weight:normal;font-stretch:normal;text-align:end;line-height:125%;letter-spacing:0px;word-spacing:0px;writing-mode:lr-tb;text-anchor:end;fill:#000000;fill-opacity:1;stroke:none;font-family:Standard Symbols L;-inkscape-font-specification:Standard Symbols L"
         id="path3581-8" />
      <path
         inkscape:connector-curvature="0"
         d="m 105.43226,360.39344 -2.97218,8.05962 5.95521,0 -2.98303,-8.05962 z m -1.2366,-2.15863 2.48405,0 6.17217,16.19516 -2.27795,0 -1.47525,-4.15455 -7.3003,0 -1.47524,4.15455 -2.310497,0 6.183017,-16.19516 z"
         style="font-size:91.52845001px;font-style:normal;font-variant:normal;font-weight:normal;font-stretch:normal;text-align:end;line-height:125%;letter-spacing:0px;word-spacing:0px;writing-mode:lr-tb;text-anchor:end;fill:#000000;fill-opacity:1;stroke:none;font-family:Standard Symbols L;-inkscape-font-specification:Standard Symbols L"
         id="path3583-1" />
      <path
         inkscape:connector-curvature="0"
         d="m 117.39694,360.03548 0,12.59382 2.64676,0 q 3.35185,0 4.90302,-1.51863 1.56203,-1.51864 1.56203,-4.79455 0,-3.25422 -1.56203,-4.76201 -1.55117,-1.51863 -4.90302,-1.51863 l -2.64676,0 z m -2.19118,-1.80067 4.50167,0 q 4.70777,0 6.90979,1.96338 2.20202,1.95253 2.20202,6.11793 0,4.18709 -2.21287,6.15047 -2.21286,1.96338 -6.89894,1.96338 l -4.50167,0 0,-16.19516 z"
         style="font-size:91.52845001px;font-style:normal;font-variant:normal;font-weight:normal;font-stretch:normal;text-align:end;line-height:125%;letter-spacing:0px;word-spacing:0px;writing-mode:lr-tb;text-anchor:end;fill:#000000;fill-opacity:1;stroke:none;font-family:Standard Symbols L;-inkscape-font-specification:Standard Symbols L"
         id="path3585-9" />
      <path
         inkscape:connector-curvature="0"
         d="m 137.32361,360.39344 -2.97219,8.05962 5.95522,0 -2.98303,-8.05962 z m -1.23661,-2.15863 2.48406,0 6.17217,16.19516 -2.27796,0 -1.47524,-4.15455 -7.3003,0 -1.47525,4.15455 -2.31049,0 6.18301,-16.19516 z"
         style="font-size:91.52845001px;font-style:normal;font-variant:normal;font-weight:normal;font-stretch:normal;text-align:end;line-height:125%;letter-spacing:0px;word-spacing:0px;writing-mode:lr-tb;text-anchor:end;fill:#000000;fill-opacity:1;stroke:none;font-family:Standard Symbols L;-inkscape-font-specification:Standard Symbols L"
         id="path3587-4" />
      <path
         inkscape:connector-curvature="0"
         d="m 35.520802,381.76655 3.996184,0 0,12.10725 14.520786,0 0,-12.10725 3.996184,0 0,29.53615 -3.996184,0 0,-14.06577 -14.520786,0 0,14.06577 -3.996184,0 0,-29.53615 z"
         style="font-size:166.92628479px;font-style:normal;font-variant:normal;font-weight:normal;font-stretch:normal;line-height:125%;letter-spacing:0px;word-spacing:0px;fill:#000000;fill-opacity:1;stroke:none;font-family:Standard Symbols L;-inkscape-font-specification:Standard Symbols L"
         id="path3566-3" />
      <path
         inkscape:connector-curvature="0"
         d="m 75.858518,385.70339 -5.420565,14.69883 10.860915,0 -5.44035,-14.69883 z m -2.255273,-3.93684 4.530328,0 11.256577,29.53615 -4.15445,0 -2.690498,-7.57692 -13.314019,0 -2.6905,7.57692 -4.213796,0 11.276358,-29.53615 z"
         style="font-size:166.92628479px;font-style:normal;font-variant:normal;font-weight:normal;font-stretch:normal;line-height:125%;letter-spacing:0px;word-spacing:0px;fill:#000000;fill-opacity:1;stroke:none;font-family:Standard Symbols L;-inkscape-font-specification:Standard Symbols L"
         id="path3568-7" />
      <path
         inkscape:connector-curvature="0"
         d="m 115.08838,384.04161 0,4.2138 q -2.01788,-1.8794 -4.31271,-2.8092 -2.27506,-0.92981 -4.84686,-0.92981 -5.06447,0 -7.754969,3.10594 -2.6905,3.08617 -2.6905,8.94196 0,5.83601 2.6905,8.94196 2.690499,3.08616 7.754969,3.08616 2.5718,0 4.84686,-0.92981 2.29483,-0.9298 4.31271,-2.8092 l 0,4.17424 q -2.09701,1.42438 -4.4512,2.13657 -2.3344,0.71219 -4.94577,0.71219 -6.706464,0 -10.564166,-4.0951 -3.857702,-4.11488 -3.857702,-11.21701 0,-7.12191 3.857702,-11.21701 3.857702,-4.11488 10.564166,-4.11488 2.65094,0 4.98534,0.71219 2.35419,0.69241 4.41163,2.09701 z"
         style="font-size:166.92628479px;font-style:normal;font-variant:normal;font-weight:normal;font-stretch:normal;line-height:125%;letter-spacing:0px;word-spacing:0px;fill:#000000;fill-opacity:1;stroke:none;font-family:Standard Symbols L;-inkscape-font-specification:Standard Symbols L"
         id="path3570-5" />
      <path
         inkscape:connector-curvature="0"
         d="m 121.30027,381.76655 3.99618,0 0,12.48313 13.25467,-12.48313 5.1436,0 -14.65926,13.76903 15.70777,15.76712 -5.2623,0 -14.18448,-14.22404 0,14.22404 -3.99618,0 0,-29.53615 z"
         style="font-size:166.92628479px;font-style:normal;font-variant:normal;font-weight:normal;font-stretch:normal;line-height:125%;letter-spacing:0px;word-spacing:0px;fill:#000000;fill-opacity:1;stroke:none;font-family:Standard Symbols L;-inkscape-font-specification:Standard Symbols L"
         id="path3572-8" />
      <path
         inkscape:connector-curvature="0"
         d="m 35.520802,418.36426 6.049612,0 0,39.62196 21.772608,0 0,5.09125 -27.82222,0 0,-44.71321 z"
         style="font-size:medium;font-style:normal;font-variant:normal;font-weight:normal;font-stretch:normal;line-height:125%;letter-spacing:0px;word-spacing:0px;fill:#000000;fill-opacity:1;stroke:none;font-family:Standard Symbols L;-inkscape-font-specification:Standard Symbols L"
         id="path3559-0" />
      <path
         inkscape:connector-curvature="0"
         d="m 86.044036,424.32403 -8.205907,22.25178 16.441763,0 -8.235856,-22.25178 z m -3.414138,-5.95977 6.858224,0 17.040738,44.71321 -6.2892,0 -4.073009,-11.4703 -20.155384,0 -4.073006,11.4703 -6.379045,0 17.070682,-44.71321 z"
         style="font-size:medium;font-style:normal;font-variant:normal;font-weight:normal;font-stretch:normal;line-height:125%;letter-spacing:0px;word-spacing:0px;fill:#000000;fill-opacity:1;stroke:none;font-family:Standard Symbols L;-inkscape-font-specification:Standard Symbols L"
         id="path3561-73" />
      <path
         inkscape:connector-curvature="0"
         d="m 119.0773,441.72415 0,16.38186 9.70334,0 q 4.88162,0 7.2176,-2.00655 2.36594,-2.03651 2.36594,-6.19936 0,-4.1928 -2.36594,-6.1694 -2.33598,-2.00655 -7.2176,-2.00655 l -9.70334,0 z m 0,-18.38842 0,13.47685 8.95463,0 q 4.43238,0 6.58868,-1.64717 2.18624,-1.67712 2.18624,-5.09126 0,-3.38419 -2.18624,-5.06131 -2.1563,-1.67711 -6.58868,-1.67711 l -8.95463,0 z m -6.04961,-4.97147 15.45346,0 q 6.91812,0 10.66169,2.87507 3.74357,2.87506 3.74357,8.17595 0,4.10296 -1.91671,6.52879 -1.9167,2.42584 -5.63032,3.02481 4.46233,0.95835 6.91812,4.01311 2.48573,3.0248 2.48573,7.57698 0,5.98971 -4.07301,9.25411 -4.073,3.26439 -11.59009,3.26439 l -16.05244,0 0,-44.71321 z"
         style="font-size:medium;font-style:normal;font-variant:normal;font-weight:normal;font-stretch:normal;line-height:125%;letter-spacing:0px;word-spacing:0px;fill:#000000;fill-opacity:1;stroke:none;font-family:Standard Symbols L;-inkscape-font-specification:Standard Symbols L"
         id="path3563-5" />
    </g>
  </g>
</svg>
